<svg xmlns="http://www.w3.org/2000/svg" viewBox="0 -51.4 92 51.4">
  <path d="M 80.8 -18.3 v -1.7 h 8.5 c 2.7 0 2.7 2.7 2.7 2.7 v 14.6 c 0 1.35 -1.35 2.7 -2.7 2.7 h -46.7 a 1 1 0 0 1 0 -5.2 h 6.1 c 0.536 -0.022 0.767 -0.312 0.8 -0.8 v -7.2 c -0.013 -0.426 -0.332 -0.797 -0.8 -0.8 h -46 c -1.535 -0.013 -2.726 -1.147 -2.7 -2.7 v -32 c -0.007 -1.541 1.144 -2.682 2.7 -2.7 h 8.5 v 1.7 h -8.5 c -0.695 0.006 -0.991 0.518 -1 1 v 32 c 0 0.5 0.6667 1 1 1 h 46 c 1.25 0.057 2.5 1.25 2.5 2.5 v 7.2 c 0 1.25 -0.887 2.5 -2.5 2.5 h -6.1 a 1 1 0 0 0 0 1.8 h 46.7 c 0.684 0.026 0.99 -0.37 1 -1 v -14.6 c -0.015 -0.585 -0.356 -0.994 -1 -1 z" stroke="#000000" stroke-width="1" fill="#fff"/>
</svg>